<?xml version="1.0" encoding="UTF-8" standalone="no"?>
<!-- Created with Inkscape (http://www.inkscape.org/) -->

<svg
   width="94.145218mm"
   height="78.38961mm"
   viewBox="0 0 94.145218 78.38961"
   version="1.1"
   id="svg1"
   inkscape:version="1.3.2 (091e20ef0f, 2023-11-25)"
   sodipodi:docname="Storm.svg"
   xmlns:inkscape="http://www.inkscape.org/namespaces/inkscape"
   xmlns:sodipodi="http://sodipodi.sourceforge.net/DTD/sodipodi-0.dtd"
   xmlns:xlink="http://www.w3.org/1999/xlink"
   xmlns="http://www.w3.org/2000/svg"
   xmlns:svg="http://www.w3.org/2000/svg">
  <sodipodi:namedview
     id="namedview1"
     pagecolor="#ffffff"
     bordercolor="#000000"
     borderopacity="0.25"
     inkscape:showpageshadow="2"
     inkscape:pageopacity="0.0"
     inkscape:pagecheckerboard="true"
     inkscape:deskcolor="#d1d1d1"
     inkscape:document-units="mm"
     showguides="false"
     inkscape:zoom="0.74564394"
     inkscape:cx="193.79223"
     inkscape:cy="360.09144"
     inkscape:window-width="1920"
     inkscape:window-height="1043"
     inkscape:window-x="0"
     inkscape:window-y="0"
     inkscape:window-maximized="1"
     inkscape:current-layer="layer1" />
  <defs
     id="defs1">
    <linearGradient
       id="linearGradient15"
       inkscape:collect="always">
      <stop
         style="stop-color:#98b0c8;stop-opacity:1;"
         offset="0"
         id="stop15" />
      <stop
         style="stop-color:#ffe7db;stop-opacity:1;"
         offset="0.92019159"
         id="stop16" />
    </linearGradient>
    <linearGradient
       inkscape:collect="always"
       xlink:href="#linearGradient15"
       id="linearGradient16"
       x1="53.815418"
       y1="76.26046"
       x2="147.82964"
       y2="76.26046"
       gradientUnits="userSpaceOnUse" />
    <linearGradient
       inkscape:collect="always"
       xlink:href="#linearGradient23"
       id="linearGradient34"
       x1="101.76289"
       y1="130.54195"
       x2="63.328876"
       y2="23.070612"
       gradientUnits="userSpaceOnUse"
       gradientTransform="matrix(0.15657126,0,0,0.15657126,61.164426,102.8905)" />
    <linearGradient
       id="linearGradient23"
       inkscape:collect="always">
      <stop
         style="stop-color:#ffd79f;stop-opacity:0.99999934;"
         offset="0.18584643"
         id="stop24" />
      <stop
         style="stop-color:#ecac5c;stop-opacity:1;"
         offset="0.51149505"
         id="stop25" />
    </linearGradient>
    <linearGradient
       inkscape:collect="always"
       xlink:href="#linearGradient23"
       id="linearGradient1"
       gradientUnits="userSpaceOnUse"
       gradientTransform="matrix(0.15657126,0,0,0.15657126,88.129396,102.8905)"
       x1="101.76289"
       y1="130.54195"
       x2="63.328876"
       y2="23.070612" />
    <linearGradient
       inkscape:collect="always"
       xlink:href="#linearGradient23"
       id="linearGradient2"
       gradientUnits="userSpaceOnUse"
       gradientTransform="matrix(0.15657126,0,0,0.15657126,115.09437,102.8905)"
       x1="101.76289"
       y1="130.54195"
       x2="63.328876"
       y2="23.070612" />
  </defs>
  <g
     inkscape:label="Layer 1"
     inkscape:groupmode="layer"
     id="layer1"
     transform="translate(-53.749919,-53.245558)">
    <path
       id="rect1"
       style="fill:url(#linearGradient16);stroke:#000000;stroke-width:1;stroke-linejoin:round;stroke-dasharray:none;stroke-opacity:1"
       d="M 97.405941,53.745557 A 12.363912,12.363912 0 0 0 86.480509,60.385461 12.363912,12.363912 0 0 0 83.420231,59.999438 12.363912,12.363912 0 0 0 71.056645,72.363542 12.363912,12.363912 0 0 0 58.797961,83.253833 c -2.697332,1.33673 -4.548042,4.107094 -4.548042,7.332369 0,4.536709 3.652454,8.189164 8.189164,8.189164 h 76.767407 c 4.53671,0 8.18865,-3.652455 8.18865,-8.189164 0,-3.208389 -1.83084,-5.966978 -4.50515,-7.311698 a 12.363912,12.363912 0 0 0 0.063,-0.876949 12.363912,12.363912 0 0 0 -10.95334,-12.279871 12.363912,12.363912 0 0 0 -11.13833,-7.000606 12.363912,12.363912 0 0 0 -1.16892,0.0832 12.363912,12.363912 0 0 0 -8.30079,-3.200839 12.363912,12.363912 0 0 0 -3.02152,0.400493 12.363912,12.363912 0 0 0 -10.964189,-6.654374 z" />
    <path
       id="path4"
       style="fill:url(#linearGradient34);fill-opacity:1;stroke:#000000;stroke-width:0.313142;stroke-linejoin:round;stroke-dasharray:none;stroke-opacity:1"
       d="m 79.782479,104.13361 -8.771019,2.35021 -2.718997,9.7315 3.951424,-1.05879 -1.6708,6.05169 3.633684,-0.98533 -2.218075,11.25578 9.125,-15.20922 -2.538318,0.44185 1.481384,-5.59495 -2.313386,0.62729 z" />
    <path
       id="path1"
       style="fill:url(#linearGradient1);fill-opacity:1;stroke:#000000;stroke-width:0.313142;stroke-linejoin:round;stroke-dasharray:none;stroke-opacity:1"
       d="m 106.74745,104.13361 -8.77102,2.35021 -2.718997,9.7315 3.951424,-1.05879 -1.6708,6.05169 3.633683,-0.98533 -2.218074,11.25578 9.125004,-15.20922 -2.53832,0.44185 1.48138,-5.59495 -2.31338,0.62729 z" />
    <path
       id="path2"
       style="fill:url(#linearGradient2);fill-opacity:1;stroke:#000000;stroke-width:0.313142;stroke-linejoin:round;stroke-dasharray:none;stroke-opacity:1"
       d="m 133.71242,104.13361 -8.77102,2.35021 -2.71899,9.7315 3.95142,-1.05879 -1.6708,6.05169 3.63368,-0.98533 -2.21807,11.25578 9.125,-15.20922 -2.53832,0.44185 1.48138,-5.59495 -2.31338,0.62729 z" />
  </g>
</svg>
